<?xml version="1.0" standalone="no"?><!DOCTYPE svg PUBLIC "-//W3C//DTD SVG 1.1//EN" "http://www.w3.org/Graphics/SVG/1.1/DTD/svg11.dtd"><svg t="1576680580271" class="icon" viewBox="0 0 1024 1024" version="1.1" xmlns="http://www.w3.org/2000/svg" p-id="3677" xmlns:xlink="http://www.w3.org/1999/xlink" width="32" height="32"><defs><style type="text/css"></style></defs><path d="M426.666667 341.333333h170.666666V277.333333a149.333333 149.333333 0 1 1 149.333334 149.333334H682.666667v170.666666h64a149.333333 149.333333 0 1 1-149.333334 149.333334V682.666667h-170.666666v64A149.333333 149.333333 0 1 1 277.333333 597.333333H597.333333v-170.666666h-170.666666v42.666666a42.666667 42.666667 0 0 1-85.333334 0v-42.666666H277.333333A149.333333 149.333333 0 1 1 426.666667 277.333333V341.333333zM341.333333 341.333333V277.333333A64 64 0 1 0 277.333333 341.333333H341.333333z m341.333334 0h64A64 64 0 1 0 682.666667 277.333333V341.333333z m-341.333334 341.333334H277.333333A64 64 0 1 0 341.333333 746.666667V682.666667z m341.333334 0v64a64 64 0 1 0 64-64H682.666667z" p-id="3678"></path></svg>