<?xml version="1.0" standalone="no"?><!DOCTYPE svg PUBLIC "-//W3C//DTD SVG 1.1//EN" "http://www.w3.org/Graphics/SVG/1.1/DTD/svg11.dtd"><svg t="1576681072417" class="icon" viewBox="0 0 1024 1024" version="1.1" xmlns="http://www.w3.org/2000/svg" p-id="18679" xmlns:xlink="http://www.w3.org/1999/xlink" width="32" height="32"><defs><style type="text/css"></style></defs><path d="M126 196v226h76V202h220v-76H196a70.08 70.08 0 0 0-70 70zM828 126H602v76h220v220h76V196a70.08 70.08 0 0 0-70-70zM202 602h-76v226a70.08 70.08 0 0 0 70 70h226v-76H202zM822 822H602v76h226a70.08 70.08 0 0 0 70-70V602h-76z" p-id="18680"></path></svg>