<?xml version="1.0" standalone="no"?><!DOCTYPE svg PUBLIC "-//W3C//DTD SVG 1.1//EN" "http://www.w3.org/Graphics/SVG/1.1/DTD/svg11.dtd"><svg t="1576680618980" class="icon" viewBox="0 0 1024 1024" version="1.1" xmlns="http://www.w3.org/2000/svg" p-id="4452" xmlns:xlink="http://www.w3.org/1999/xlink" width="32" height="32"><defs><style type="text/css"></style></defs><path d="M726.016 297.984q88.021333 0 150.016 63.018667t61.994667 150.997333-61.994667 150.997333-150.016 63.018667l-171.989333 0 0-82.005333 171.989333 0q54.016 0 93.013333-38.997333t38.997333-93.013333-38.997333-93.013333-93.013333-38.997333l-171.989333 0 0-82.005333 171.989333 0zM342.016 553.984l0-84.010667 340.010667 0 0 84.010667-340.010667 0zM166.016 512q0 54.016 38.997333 93.013333t93.013333 38.997333l171.989333 0 0 82.005333-171.989333 0q-88.021333 0-150.016-63.018667t-61.994667-150.997333 61.994667-150.997333 150.016-63.018667l171.989333 0 0 82.005333-171.989333 0q-54.016 0-93.013333 38.997333t-38.997333 93.013333z" p-id="4453"></path></svg>