<?xml version="1.0" standalone="no"?><!DOCTYPE svg PUBLIC "-//W3C//DTD SVG 1.1//EN" "http://www.w3.org/Graphics/SVG/1.1/DTD/svg11.dtd"><svg t="1576683435711" class="icon" viewBox="0 0 1024 1024" version="1.1" xmlns="http://www.w3.org/2000/svg" p-id="24049" xmlns:xlink="http://www.w3.org/1999/xlink" width="32" height="32"><defs><style type="text/css"></style></defs><path d="M301.5 238.5h575.1c11.5 0 19.2-9.1 19.2-22.8 0-13.7-7.7-22.8-19.2-22.8H301.5c-11.5 0-19.2 9.1-19.2 22.8 0.1 13.7 7.7 22.8 19.2 22.8z m575.2 250.7H301.5c-11.5 0-19.2 9.1-19.2 22.8 0 13.7 7.7 22.8 19.2 22.8h575.1c11.5 0 19.2-9.1 19.2-22.8 0.1-13.7-7.6-22.8-19.1-22.8z m0 296H301.5c-11.5 0-19.2 9.1-19.2 22.8 0 13.7 7.7 22.8 19.2 22.8h575.1c11.5 0 19.2-9.1 19.2-22.8 0.1-13.7-7.6-22.8-19.1-22.8z m0 0M129.6 577.8c40.8-40.6 64.9-71.9 64.9-97.6 0-16.9-8.3-27.1-22.5-27.1-11 0-20.1 7.9-27.6 17.1l-16.2-18c13.8-16.2 27.2-25.3 47.7-25.3 28.4 0 47.2 20.3 47.2 51.4 0 30.2-22.5 62.7-49.9 92.4 7.5-0.9 17.4-1.8 24.3-1.8h32.6v28H129.6v-19.1zM117.2 869.2l13.9-20.6c8.8 9.5 19.7 16.8 33.1 16.8 15.1 0 25.3-8.2 25.3-22.8 0-16.2-8.6-26.1-41-26.1V793c27.3 0 36.1-10.4 36.1-25 0-12.8-7.2-20.4-19.9-20.6-10.6 0.2-19.3 5.8-28.1 14.6l-15.1-19.9c12.9-12.4 27.1-20.1 44.6-20.1 28.7 0 48.2 15.5 48.2 43.6 0 17.7-9 30.5-24.9 37.4v1.1c16.9 5.1 29.7 18.8 29.7 40.3 0 30.1-23.9 47.6-52.2 47.6-23.4 0-39.2-9.7-49.7-22.8zM127.9 272.7h36.4V165.2h-30.7v-20.9c17-3.2 28.7-7.6 39.4-14.2h25v142.7h31.9v27.3h-102v-27.4z" p-id="24050"></path></svg>