<?xml version="1.0" standalone="no"?><!DOCTYPE svg PUBLIC "-//W3C//DTD SVG 1.1//EN" "http://www.w3.org/Graphics/SVG/1.1/DTD/svg11.dtd"><svg t="1576827843014" class="icon" viewBox="0 0 1024 1024" version="1.1" xmlns="http://www.w3.org/2000/svg" p-id="1301" xmlns:xlink="http://www.w3.org/1999/xlink" width="32" height="32"><defs><style type="text/css"></style></defs><path d="M896 1024H128a128 128 0 0 1-128-122.88V421.546667A128 128 0 0 1 128 298.666667h149.333333a42.666667 42.666667 0 0 1 0 85.333333H128a40.106667 40.106667 0 0 0-42.666667 37.546667v479.573333A40.106667 40.106667 0 0 0 128 938.666667h768a40.106667 40.106667 0 0 0 42.666667-37.546667V421.546667A40.106667 40.106667 0 0 0 896 384h-149.333333a42.666667 42.666667 0 0 1 0-85.333333H896a128 128 0 0 1 128 122.88v479.573333A128 128 0 0 1 896 1024z m-384-423.68a42.666667 42.666667 0 0 1-42.666667-42.666667V124.16l-62.293333 39.68A42.666667 42.666667 0 0 1 341.333333 128a42.666667 42.666667 0 0 1 19.626667-35.84L483.413333 14.08a45.226667 45.226667 0 0 1 57.173334 0l122.453333 78.08a42.666667 42.666667 0 0 1 12.8 58.88 42.666667 42.666667 0 0 1-58.88 12.8L554.666667 124.16v433.493333a42.666667 42.666667 0 0 1-42.666667 42.666667z" p-id="1302"></path></svg>